<svg width="29" height="27" viewBox="0 0 29 27" fill="none" xmlns="http://www.w3.org/2000/svg">
<path d="M1.46851 15.2154L24.0399 15.1851L16.3866 24.122C15.822 24.7814 15.8234 25.8489 16.3898 26.5068C16.9562 27.1646 17.8733 27.1633 18.4379 26.504L28.5594 14.6849C29.124 14.0256 29.1226 12.9576 28.5562 12.3002L18.4031 0.508296C18.1199 0.179386 17.749 0.0150266 17.3782 0.0155229C17.0079 0.0160188 16.6373 0.181371 16.355 0.511038C15.7904 1.17037 15.7918 2.23835 16.3582 2.89575L24.0354 11.8121L1.464 11.8424C0.664599 11.8434 0.0168229 12.5994 0.0180699 13.5308C0.0193168 14.4622 0.668753 15.2164 1.46851 15.2154Z" fill="#CDA274"/>
</svg>
